<mxfile host="app.diagrams.net" modified="2021-01-03T08:23:30.943Z" agent="5.0 (Windows NT 10.0; Win64; x64) AppleWebKit/537.36 (KHTML, like Gecko) Chrome/86.0.4240.111 Safari/537.36" etag="SdDQF-h7CaxsCCLMUUUa" version="14.1.6" type="github">
  <diagram id="GuRzzckfyUOejNLo7lIA" name="第 1 页">
    <mxGraphModel dx="1056" dy="537" grid="1" gridSize="10" guides="1" tooltips="1" connect="1" arrows="1" fold="1" page="1" pageScale="1" pageWidth="827" pageHeight="1169" math="0" shadow="0">
      <root>
        <mxCell id="0" />
        <mxCell id="1" parent="0" />
        <mxCell id="YqwiJ9IUMlOhpW5BJJl_-5" style="edgeStyle=orthogonalEdgeStyle;rounded=0;orthogonalLoop=1;jettySize=auto;html=1;entryX=0.5;entryY=0;entryDx=0;entryDy=0;" edge="1" parent="1" source="YqwiJ9IUMlOhpW5BJJl_-1" target="YqwiJ9IUMlOhpW5BJJl_-3">
          <mxGeometry relative="1" as="geometry" />
        </mxCell>
        <mxCell id="YqwiJ9IUMlOhpW5BJJl_-1" value="performDraw" style="rounded=0;whiteSpace=wrap;html=1;" vertex="1" parent="1">
          <mxGeometry x="40" y="110" width="120" height="60" as="geometry" />
        </mxCell>
        <mxCell id="YqwiJ9IUMlOhpW5BJJl_-2" value="ViewRootImpl" style="text;html=1;align=center;verticalAlign=middle;resizable=0;points=[];autosize=1;" vertex="1" parent="1">
          <mxGeometry x="55" y="70" width="90" height="20" as="geometry" />
        </mxCell>
        <mxCell id="YqwiJ9IUMlOhpW5BJJl_-6" style="edgeStyle=orthogonalEdgeStyle;rounded=0;orthogonalLoop=1;jettySize=auto;html=1;entryX=0.5;entryY=0;entryDx=0;entryDy=0;" edge="1" parent="1" source="YqwiJ9IUMlOhpW5BJJl_-3" target="YqwiJ9IUMlOhpW5BJJl_-4">
          <mxGeometry relative="1" as="geometry" />
        </mxCell>
        <mxCell id="YqwiJ9IUMlOhpW5BJJl_-3" value="draw" style="rounded=0;whiteSpace=wrap;html=1;" vertex="1" parent="1">
          <mxGeometry x="40" y="230" width="120" height="60" as="geometry" />
        </mxCell>
        <mxCell id="YqwiJ9IUMlOhpW5BJJl_-8" style="edgeStyle=orthogonalEdgeStyle;rounded=0;orthogonalLoop=1;jettySize=auto;html=1;entryX=0;entryY=0.5;entryDx=0;entryDy=0;" edge="1" parent="1" source="YqwiJ9IUMlOhpW5BJJl_-4" target="YqwiJ9IUMlOhpW5BJJl_-7">
          <mxGeometry relative="1" as="geometry" />
        </mxCell>
        <mxCell id="YqwiJ9IUMlOhpW5BJJl_-4" value="drawSoftware" style="rounded=0;whiteSpace=wrap;html=1;" vertex="1" parent="1">
          <mxGeometry x="40" y="350" width="120" height="60" as="geometry" />
        </mxCell>
        <mxCell id="YqwiJ9IUMlOhpW5BJJl_-17" style="edgeStyle=orthogonalEdgeStyle;rounded=0;orthogonalLoop=1;jettySize=auto;html=1;entryX=0.5;entryY=0;entryDx=0;entryDy=0;" edge="1" parent="1" source="YqwiJ9IUMlOhpW5BJJl_-7" target="YqwiJ9IUMlOhpW5BJJl_-9">
          <mxGeometry relative="1" as="geometry" />
        </mxCell>
        <mxCell id="YqwiJ9IUMlOhpW5BJJl_-7" value="draw" style="rounded=0;whiteSpace=wrap;html=1;" vertex="1" parent="1">
          <mxGeometry x="260" y="350" width="120" height="60" as="geometry" />
        </mxCell>
        <mxCell id="YqwiJ9IUMlOhpW5BJJl_-18" value="" style="edgeStyle=orthogonalEdgeStyle;rounded=0;orthogonalLoop=1;jettySize=auto;html=1;" edge="1" parent="1" source="YqwiJ9IUMlOhpW5BJJl_-9" target="YqwiJ9IUMlOhpW5BJJl_-10">
          <mxGeometry relative="1" as="geometry" />
        </mxCell>
        <mxCell id="YqwiJ9IUMlOhpW5BJJl_-9" value="drawBackground" style="rounded=0;whiteSpace=wrap;html=1;" vertex="1" parent="1">
          <mxGeometry x="260" y="440" width="120" height="60" as="geometry" />
        </mxCell>
        <mxCell id="YqwiJ9IUMlOhpW5BJJl_-16" style="edgeStyle=orthogonalEdgeStyle;rounded=0;orthogonalLoop=1;jettySize=auto;html=1;entryX=0.5;entryY=0;entryDx=0;entryDy=0;" edge="1" parent="1" source="YqwiJ9IUMlOhpW5BJJl_-10" target="YqwiJ9IUMlOhpW5BJJl_-11">
          <mxGeometry relative="1" as="geometry" />
        </mxCell>
        <mxCell id="YqwiJ9IUMlOhpW5BJJl_-10" value="onDraw" style="rounded=0;whiteSpace=wrap;html=1;" vertex="1" parent="1">
          <mxGeometry x="260" y="525" width="120" height="60" as="geometry" />
        </mxCell>
        <mxCell id="YqwiJ9IUMlOhpW5BJJl_-15" style="edgeStyle=orthogonalEdgeStyle;rounded=0;orthogonalLoop=1;jettySize=auto;html=1;entryX=0.5;entryY=0;entryDx=0;entryDy=0;" edge="1" parent="1" source="YqwiJ9IUMlOhpW5BJJl_-11" target="YqwiJ9IUMlOhpW5BJJl_-12">
          <mxGeometry relative="1" as="geometry" />
        </mxCell>
        <mxCell id="YqwiJ9IUMlOhpW5BJJl_-19" style="edgeStyle=orthogonalEdgeStyle;rounded=0;orthogonalLoop=1;jettySize=auto;html=1;entryX=1;entryY=0.5;entryDx=0;entryDy=0;" edge="1" parent="1" source="YqwiJ9IUMlOhpW5BJJl_-11" target="YqwiJ9IUMlOhpW5BJJl_-7">
          <mxGeometry relative="1" as="geometry">
            <mxPoint x="590" y="380" as="targetPoint" />
            <Array as="points">
              <mxPoint x="600" y="650" />
              <mxPoint x="600" y="380" />
            </Array>
          </mxGeometry>
        </mxCell>
        <mxCell id="YqwiJ9IUMlOhpW5BJJl_-20" value="ViewGroup" style="edgeLabel;html=1;align=center;verticalAlign=middle;resizable=0;points=[];" vertex="1" connectable="0" parent="YqwiJ9IUMlOhpW5BJJl_-19">
          <mxGeometry x="-0.0282" y="-4" relative="1" as="geometry">
            <mxPoint x="-4" as="offset" />
          </mxGeometry>
        </mxCell>
        <mxCell id="YqwiJ9IUMlOhpW5BJJl_-11" value="dispatchDraw" style="rounded=0;whiteSpace=wrap;html=1;" vertex="1" parent="1">
          <mxGeometry x="260" y="620" width="120" height="60" as="geometry" />
        </mxCell>
        <mxCell id="YqwiJ9IUMlOhpW5BJJl_-14" style="edgeStyle=orthogonalEdgeStyle;rounded=0;orthogonalLoop=1;jettySize=auto;html=1;entryX=0.5;entryY=0;entryDx=0;entryDy=0;" edge="1" parent="1" source="YqwiJ9IUMlOhpW5BJJl_-12" target="YqwiJ9IUMlOhpW5BJJl_-13">
          <mxGeometry relative="1" as="geometry" />
        </mxCell>
        <mxCell id="YqwiJ9IUMlOhpW5BJJl_-12" value="onDrawForeground" style="rounded=0;whiteSpace=wrap;html=1;" vertex="1" parent="1">
          <mxGeometry x="260" y="710" width="120" height="60" as="geometry" />
        </mxCell>
        <mxCell id="YqwiJ9IUMlOhpW5BJJl_-13" value="drawDefaultFocusHighlight" style="rounded=0;whiteSpace=wrap;html=1;" vertex="1" parent="1">
          <mxGeometry x="225" y="810" width="190" height="60" as="geometry" />
        </mxCell>
        <mxCell id="YqwiJ9IUMlOhpW5BJJl_-21" value="View" style="text;html=1;align=center;verticalAlign=middle;resizable=0;points=[];autosize=1;" vertex="1" parent="1">
          <mxGeometry x="300" y="310" width="40" height="20" as="geometry" />
        </mxCell>
        <mxCell id="YqwiJ9IUMlOhpW5BJJl_-22" value="绘制流程" style="text;html=1;align=center;verticalAlign=middle;resizable=0;points=[];autosize=1;fontSize=29;" vertex="1" parent="1">
          <mxGeometry x="265" y="210" width="130" height="40" as="geometry" />
        </mxCell>
        <mxCell id="YqwiJ9IUMlOhpW5BJJl_-23" value="10 xxxxxxxxxxxx 1010" style="rounded=0;whiteSpace=wrap;html=1;fontSize=29;align=right;" vertex="1" parent="1">
          <mxGeometry x="380" y="940" width="290" height="30" as="geometry" />
        </mxCell>
        <mxCell id="YqwiJ9IUMlOhpW5BJJl_-24" value="00 11111111111111111" style="rounded=0;whiteSpace=wrap;html=1;fontSize=29;align=right;" vertex="1" parent="1">
          <mxGeometry x="380" y="1000" width="291" height="30" as="geometry" />
        </mxCell>
        <mxCell id="YqwiJ9IUMlOhpW5BJJl_-25" value="&amp;amp;" style="text;html=1;align=center;verticalAlign=middle;resizable=0;points=[];autosize=1;fontSize=29;" vertex="1" parent="1">
          <mxGeometry x="335" y="995" width="30" height="40" as="geometry" />
        </mxCell>
        <mxCell id="YqwiJ9IUMlOhpW5BJJl_-26" value="" style="endArrow=none;html=1;fontSize=29;" edge="1" parent="1">
          <mxGeometry width="50" height="50" relative="1" as="geometry">
            <mxPoint x="310" y="1040" as="sourcePoint" />
            <mxPoint x="690" y="1040" as="targetPoint" />
          </mxGeometry>
        </mxCell>
        <mxCell id="YqwiJ9IUMlOhpW5BJJl_-27" value="00 xxxxxxxxxxxx 1010" style="rounded=0;whiteSpace=wrap;html=1;fontSize=29;align=right;" vertex="1" parent="1">
          <mxGeometry x="379" y="1050" width="291" height="30" as="geometry" />
        </mxCell>
        <mxCell id="YqwiJ9IUMlOhpW5BJJl_-28" value="=" style="text;html=1;align=center;verticalAlign=middle;resizable=0;points=[];autosize=1;fontSize=29;" vertex="1" parent="1">
          <mxGeometry x="335" y="1045" width="30" height="40" as="geometry" />
        </mxCell>
        <mxCell id="YqwiJ9IUMlOhpW5BJJl_-30" value="&lt;font style=&quot;font-size: 16px&quot;&gt;widthMeasureSpec&lt;/font&gt;" style="text;html=1;align=center;verticalAlign=middle;resizable=0;points=[];autosize=1;fontSize=29;" vertex="1" parent="1">
          <mxGeometry x="690" y="930" width="150" height="40" as="geometry" />
        </mxCell>
        <mxCell id="YqwiJ9IUMlOhpW5BJJl_-31" value="&lt;span style=&quot;font-size: 16px&quot;&gt;~ MODEL_MASK&lt;/span&gt;" style="text;html=1;align=center;verticalAlign=middle;resizable=0;points=[];autosize=1;fontSize=29;" vertex="1" parent="1">
          <mxGeometry x="692" y="990" width="140" height="40" as="geometry" />
        </mxCell>
        <mxCell id="YqwiJ9IUMlOhpW5BJJl_-33" value="&lt;span style=&quot;font-size: 16px&quot;&gt;size&lt;/span&gt;" style="text;html=1;align=center;verticalAlign=middle;resizable=0;points=[];autosize=1;fontSize=29;" vertex="1" parent="1">
          <mxGeometry x="745" y="1040" width="40" height="40" as="geometry" />
        </mxCell>
      </root>
    </mxGraphModel>
  </diagram>
</mxfile>
